<?xml version="1.0" ?><!DOCTYPE svg  PUBLIC '-//W3C//DTD SVG 1.1//EN'  'http://www.w3.org/Graphics/SVG/1.1/DTD/svg11.dtd'><svg height="512px" style="enable-background:new 0 0 512 512;" version="1.1" viewBox="0 0 512 512" width="512px" xml:space="preserve" xmlns="http://www.w3.org/2000/svg" xmlns:xlink="http://www.w3.org/1999/xlink"><style type="text/css">
<![CDATA[
	.st0{display:inline;}
	.st1{fill:none;stroke:#000000;stroke-width:16;stroke-linecap:round;stroke-linejoin:round;stroke-miterlimit:10;}
	.st2{display:none;}
]]>
</style><g class="st2" id="layer"><g class="st0"><g><path d="M256,59c26.602,0,52.399,5.207,76.677,15.475c23.456,9.921,44.526,24.128,62.623,42.225     c18.098,18.098,32.304,39.167,42.226,62.624C447.794,203.601,453,229.398,453,256c0,26.602-5.206,52.399-15.475,76.677     c-9.922,23.456-24.128,44.526-42.226,62.623c-18.097,18.098-39.167,32.304-62.623,42.226C308.399,447.794,282.602,453,256,453     c-26.602,0-52.399-5.206-76.676-15.475c-23.457-9.922-44.526-24.128-62.624-42.226c-18.097-18.097-32.304-39.167-42.225-62.623     C64.207,308.399,59,282.602,59,256c0-26.602,5.207-52.399,15.475-76.676c9.921-23.457,24.128-44.526,42.225-62.624     c18.098-18.097,39.167-32.304,62.624-42.225C203.601,64.207,229.398,59,256,59 M256,43C138.363,43,43,138.363,43,256     s95.363,213,213,213s213-95.363,213-213S373.637,43,256,43L256,43z"/></g><g><line class="st1" x1="256" x2="256" y1="224" y2="354"/><circle cx="256" cy="180" r="16"/></g></g></g><g id="layer_copy"><g><path d="M256,59c26.602,0,52.399,5.207,76.677,15.475c23.456,9.921,44.526,24.128,62.623,42.225    c18.098,18.098,32.304,39.167,42.226,62.624C447.794,203.601,453,229.398,453,256c0,26.602-5.206,52.399-15.475,76.677    c-9.922,23.456-24.128,44.526-42.226,62.623c-18.097,18.098-39.167,32.304-62.623,42.226C308.399,447.794,282.602,453,256,453    c-26.602,0-52.399-5.206-76.676-15.475c-23.457-9.922-44.526-24.128-62.624-42.226c-18.097-18.097-32.304-39.167-42.225-62.623    C64.207,308.399,59,282.602,59,256c0-26.602,5.207-52.399,15.475-76.676c9.921-23.457,24.128-44.526,42.225-62.624    c18.098-18.097,39.167-32.304,62.624-42.225C203.601,64.207,229.398,59,256,59 M256,43C138.363,43,43,138.363,43,256    s95.363,213,213,213s213-95.363,213-213S373.637,43,256,43L256,43z"/><path d="M256,362c-4.418,0-8-3.582-8-8V224c0-4.418,3.582-8,8-8c4.418,0,8,3.582,8,8v130C264,358.418,260.418,362,256,362z"/><circle cx="256" cy="180" r="16"/></g></g></svg>